<svg width="48" height="48" viewBox="0 0 48 48" fill="none" xmlns="http://www.w3.org/2000/svg">
<path fill-rule="evenodd" clip-rule="evenodd" d="M30 10.5C30 10.1022 29.842 9.72064 29.5607 9.43934C29.2794 9.15804 28.8978 9 28.5 9H4.5C4.10218 9 3.72064 9.15804 3.43934 9.43934C3.15804 9.72064 3 10.1022 3 10.5V37.5C3 37.8978 3.15804 38.2794 3.43934 38.5607C3.72064 38.842 4.10218 39 4.5 39H28.5C28.8978 39 29.2794 38.842 29.5607 38.5607C29.842 38.2794 30 37.8978 30 37.5V31.5C30 31.1022 30.158 30.7206 30.4393 30.4393C30.7206 30.158 31.1022 30 31.5 30C31.8978 30 32.2794 30.158 32.5607 30.4393C32.842 30.7206 33 31.1022 33 31.5V37.5C33 38.6935 32.5259 39.8381 31.682 40.682C30.8381 41.5259 29.6935 42 28.5 42H4.5C3.30653 42 2.16193 41.5259 1.31802 40.682C0.474106 39.8381 0 38.6935 0 37.5L0 10.5C0 9.30653 0.474106 8.16193 1.31802 7.31802C2.16193 6.47411 3.30653 6 4.5 6H28.5C29.6935 6 30.8381 6.47411 31.682 7.31802C32.5259 8.16193 33 9.30653 33 10.5V16.5C33 16.8978 32.842 17.2794 32.5607 17.5607C32.2794 17.842 31.8978 18 31.5 18C31.1022 18 30.7206 17.842 30.4393 17.5607C30.158 17.2794 30 16.8978 30 16.5V10.5Z" fill="white"/>
<path fill-rule="evenodd" clip-rule="evenodd" d="M12.438 25.062C12.2983 24.9227 12.1875 24.7571 12.1119 24.5749C12.0362 24.3927 11.9973 24.1973 11.9973 24C11.9973 23.8027 12.0362 23.6073 12.1119 23.4251C12.1875 23.2429 12.2983 23.0773 12.438 22.938L21.438 13.938C21.7197 13.6563 22.1017 13.4981 22.5 13.4981C22.8983 13.4981 23.2803 13.6563 23.562 13.938C23.8437 14.2197 24.0019 14.6017 24.0019 15C24.0019 15.3983 23.8437 15.7803 23.562 16.062L17.121 22.5H43.5C43.8978 22.5 44.2794 22.658 44.5607 22.9393C44.842 23.2206 45 23.6022 45 24C45 24.3978 44.842 24.7794 44.5607 25.0607C44.2794 25.342 43.8978 25.5 43.5 25.5H17.121L23.562 31.938C23.7015 32.0775 23.8121 32.243 23.8876 32.4253C23.963 32.6075 24.0019 32.8028 24.0019 33C24.0019 33.1972 23.963 33.3925 23.8876 33.5748C23.8121 33.757 23.7015 33.9225 23.562 34.062C23.4225 34.2015 23.257 34.3121 23.0747 34.3876C22.8925 34.4631 22.6972 34.5019 22.5 34.5019C22.3028 34.5019 22.1075 34.4631 21.9252 34.3876C21.743 34.3121 21.5775 34.2015 21.438 34.062L12.438 25.062Z" fill="white"/>
</svg>
