<svg width="40" height="35" viewBox="0 0 40 35" fill="none" xmlns="http://www.w3.org/2000/svg">
<path d="M20 5.79626C20.3315 5.79626 20.6495 5.94948 20.8839 6.22222C21.1183 6.49495 21.25 6.86486 21.25 7.25056V11.6134C21.25 11.9991 21.1183 12.369 20.8839 12.6418C20.6495 12.9145 20.3315 13.0677 20 13.0677C19.6685 13.0677 19.3505 12.9145 19.1161 12.6418C18.8817 12.369 18.75 11.9991 18.75 11.6134V7.25056C18.75 6.86486 18.8817 6.49495 19.1161 6.22222C19.3505 5.94948 19.6685 5.79626 20 5.79626ZM9.33 10.8339C9.56441 10.5613 9.88229 10.4081 10.2137 10.4081C10.5452 10.4081 10.8631 10.5613 11.0975 10.8339L13.385 13.4924C13.5012 13.6276 13.5934 13.7881 13.6563 13.9648C13.7192 14.1415 13.7516 14.3308 13.7516 14.522C13.7516 14.7132 13.7192 14.9026 13.6563 15.0793C13.5934 15.2559 13.5012 15.4165 13.385 15.5517C13.2688 15.6869 13.1308 15.7941 12.979 15.8673C12.8271 15.9405 12.6644 15.9782 12.5 15.9782C12.3356 15.9782 12.1729 15.9405 12.021 15.8673C11.8692 15.7941 11.7312 15.6869 11.615 15.5517L9.33 12.8903C9.09566 12.6176 8.96402 12.2477 8.96402 11.8621C8.96402 11.4765 9.09566 11.1067 9.33 10.8339ZM5 23.2478C5 22.8621 5.1317 22.4922 5.36612 22.2194C5.60054 21.9467 5.91848 21.7935 6.25 21.7935H10.215C10.5465 21.7935 10.8645 21.9467 11.0989 22.2194C11.3333 22.4922 11.465 22.8621 11.465 23.2478C11.465 23.6335 11.3333 24.0034 11.0989 24.2761C10.8645 24.5489 10.5465 24.7021 10.215 24.7021H6.25C5.91848 24.7021 5.60054 24.5489 5.36612 24.2761C5.1317 24.0034 5 23.6335 5 23.2478ZM28.75 23.2478C28.75 22.8621 28.8817 22.4922 29.1161 22.2194C29.3505 21.9467 29.6685 21.7935 30 21.7935H33.75C34.0815 21.7935 34.3995 21.9467 34.6339 22.2194C34.8683 22.4922 35 22.8621 35 23.2478C35 23.6335 34.8683 24.0034 34.6339 24.2761C34.3995 24.5489 34.0815 24.7021 33.75 24.7021H30C29.6685 24.7021 29.3505 24.5489 29.1161 24.2761C28.8817 24.0034 28.75 23.6335 28.75 23.2478ZM30.635 10.8979C30.4618 10.6975 30.2301 10.5802 29.986 10.5694C29.7419 10.5587 29.5032 10.6552 29.3175 10.8398L18.8675 21.2409C18.624 21.4795 18.4263 21.775 18.2872 22.1082C18.148 22.4413 18.0705 22.8047 18.0597 23.1749C18.0488 23.5451 18.1049 23.9139 18.2243 24.2573C18.3436 24.6007 18.5236 24.9111 18.7526 25.1685C18.9815 25.4258 19.2544 25.6244 19.5535 25.7514C19.8526 25.8784 20.1712 25.9309 20.4888 25.9056C20.8065 25.8803 21.116 25.7777 21.3974 25.6045C21.6788 25.4312 21.9258 25.1912 22.1225 24.8999L30.7075 12.4017C30.8569 12.1841 30.932 11.9102 30.9187 11.6322C30.9053 11.3543 30.8043 11.0918 30.635 10.895V10.8979Z" fill="black"/>
<path fill-rule="evenodd" clip-rule="evenodd" d="M1.32696e-05 23.2478C0.00262669 19.8616 0.640445 16.5169 1.86894 13.4472C3.09744 10.3774 4.88701 7.65661 7.11272 5.47469C9.33844 3.29276 11.9467 1.70229 14.7553 0.814313C17.5639 -0.0736621 20.5053 -0.237744 23.3741 0.333521C26.2429 0.904787 28.9699 2.19763 31.3649 4.1218C33.7598 6.04598 35.7649 8.5551 37.2402 11.474C38.7155 14.3929 39.6255 17.6513 39.9065 21.0217C40.1876 24.392 39.833 27.7931 38.8675 30.9876C37.7625 34.632 34.255 35.6471 31.5375 34.6233C28.2725 33.393 23.6875 31.9736 20 31.9736C16.315 31.9736 11.725 33.393 8.46251 34.6233C5.74501 35.6471 2.23751 34.632 1.13251 30.9876C0.380368 28.5011 -0.00259855 25.8838 1.32696e-05 23.2478ZM20 2.88769C17.2009 2.88685 14.4425 3.66718 11.9563 5.16318C9.47005 6.65917 7.32852 8.8272 5.71143 11.4853C4.09434 14.1434 3.04888 17.214 2.66278 20.4394C2.27668 23.6648 2.56122 26.9509 3.49251 30.0219C4.00001 31.6943 5.80001 32.5698 7.69251 31.8543C10.9925 30.6153 15.895 29.065 20 29.065C24.105 29.065 29.01 30.6124 32.3075 31.8572C34.2 32.5698 36 31.6943 36.5075 30.0219C37.4388 26.9509 37.7233 23.6648 37.3372 20.4394C36.9511 17.214 35.9057 14.1434 34.2886 11.4853C32.6715 8.8272 30.53 6.65917 28.0437 5.16318C25.5575 3.66718 22.7991 2.88685 20 2.88769Z" fill="black"/>
</svg>
