<svg width="35" height="45" viewBox="0 0 35 45" fill="none" xmlns="http://www.w3.org/2000/svg">
<path d="M35 12.6562V39.375C35 40.8668 34.3854 42.2976 33.2915 43.3525C32.1975 44.4074 30.7138 45 29.1667 45H5.83333C4.28624 45 2.80251 44.4074 1.70854 43.3525C0.614581 42.2976 0 40.8668 0 39.375V5.625C0 4.13316 0.614581 2.70242 1.70854 1.64752C2.80251 0.592632 4.28624 0 5.83333 0L21.875 0L35 12.6562ZM26.25 12.6562C25.0897 12.6562 23.9769 12.2118 23.1564 11.4206C22.3359 10.6294 21.875 9.55638 21.875 8.4375V2.8125H5.83333C5.05979 2.8125 4.31792 3.10882 3.77094 3.63626C3.22396 4.16371 2.91667 4.87908 2.91667 5.625V39.375C2.91667 40.1209 3.22396 40.8363 3.77094 41.3637C4.31792 41.8912 5.05979 42.1875 5.83333 42.1875H29.1667C29.9402 42.1875 30.6821 41.8912 31.2291 41.3637C31.776 40.8363 32.0833 40.1209 32.0833 39.375V12.6562H26.25Z" fill="white"/>
</svg>
