<svg width="147" height="46" viewBox="0 0 147 46" fill="none" xmlns="http://www.w3.org/2000/svg">
<path d="M24.5588 21.573C24.5588 22.433 24.5014 23.207 24.3868 23.895H6.97178C7.11511 25.615 7.71711 26.9623 8.77778 27.937C9.83844 28.9117 11.1428 29.399 12.6908 29.399C14.9268 29.399 16.5178 28.4387 17.4638 26.518H23.9568C23.2688 28.8113 21.9501 30.7033 20.0008 32.194C18.0514 33.656 15.6578 34.387 12.8198 34.387C10.5264 34.387 8.46244 33.8853 6.62778 32.882C4.82178 31.85 3.40278 30.4023 2.37078 28.539C1.36744 26.6757 0.865777 24.5257 0.865777 22.089C0.865777 19.6237 1.36744 17.4593 2.37078 15.596C3.37411 13.7327 4.77878 12.2993 6.58478 11.296C8.39078 10.2927 10.4691 9.791 12.8198 9.791C15.0844 9.791 17.1054 10.2783 18.8828 11.253C20.6888 12.2277 22.0791 13.618 23.0538 15.424C24.0571 17.2013 24.5588 19.251 24.5588 21.573ZM18.3238 19.853C18.2951 18.305 17.7361 17.0723 16.6468 16.155C15.5574 15.209 14.2244 14.736 12.6478 14.736C11.1571 14.736 9.89578 15.1947 8.86378 16.112C7.86044 17.0007 7.24411 18.2477 7.01478 19.853H18.3238Z" fill="#46B5D1"/>
<path d="M39.3158 34.301C37.2232 34.301 35.3312 33.9427 33.6398 33.226C31.9772 32.5093 30.6585 31.4773 29.6838 30.13C28.7092 28.7827 28.2075 27.1917 28.1788 25.357H34.6288C34.7148 26.5897 35.1448 27.5643 35.9188 28.281C36.7215 28.9977 37.8108 29.356 39.1868 29.356C40.5915 29.356 41.6952 29.0263 42.4978 28.367C43.3005 27.679 43.7018 26.7903 43.7018 25.701C43.7018 24.8123 43.4295 24.0813 42.8848 23.508C42.3402 22.9347 41.6522 22.4903 40.8208 22.175C40.0182 21.831 38.9002 21.4583 37.4668 21.057C35.5175 20.4837 33.9265 19.9247 32.6938 19.38C31.4898 18.8067 30.4435 17.961 29.5548 16.843C28.6948 15.6963 28.2648 14.177 28.2648 12.285C28.2648 10.5077 28.7092 8.95967 29.5978 7.641C30.4865 6.32233 31.7335 5.319 33.3388 4.631C34.9442 3.91433 36.7788 3.556 38.8428 3.556C41.9388 3.556 44.4472 4.31567 46.3678 5.835C48.3172 7.32566 49.3922 9.41833 49.5928 12.113H42.9708C42.9135 11.081 42.4692 10.2353 41.6378 9.576C40.8352 8.888 39.7602 8.544 38.4128 8.544C37.2375 8.544 36.2915 8.845 35.5748 9.447C34.8868 10.049 34.5428 10.9233 34.5428 12.07C34.5428 12.8727 34.8008 13.5463 35.3168 14.091C35.8615 14.607 36.5208 15.037 37.2948 15.381C38.0975 15.6963 39.2155 16.069 40.6488 16.499C42.5982 17.0723 44.1892 17.6457 45.4218 18.219C46.6545 18.7923 47.7152 19.6523 48.6038 20.799C49.4925 21.9457 49.9368 23.4507 49.9368 25.314C49.9368 26.9193 49.5212 28.41 48.6898 29.786C47.8585 31.162 46.6402 32.2657 45.0348 33.097C43.4295 33.8997 41.5232 34.301 39.3158 34.301ZM53.608 22.003C53.608 19.595 54.081 17.4593 55.027 15.596C56.0016 13.7327 57.306 12.2993 58.94 11.296C60.6026 10.2927 62.4516 9.791 64.487 9.791C66.2643 9.791 67.8123 10.1493 69.131 10.866C70.4783 11.5827 71.5533 12.4857 72.356 13.575V10.178H78.419V34H72.356V30.517C71.582 31.635 70.507 32.5667 69.131 33.312C67.7836 34.0287 66.2213 34.387 64.444 34.387C62.4373 34.387 60.6026 33.871 58.94 32.839C57.306 31.807 56.0016 30.3593 55.027 28.496C54.081 26.604 53.608 24.4397 53.608 22.003ZM72.356 22.089C72.356 20.627 72.0693 19.38 71.496 18.348C70.9226 17.2873 70.1486 16.4847 69.174 15.94C68.1993 15.3667 67.153 15.08 66.035 15.08C64.917 15.08 63.885 15.3523 62.939 15.897C61.993 16.4417 61.219 17.2443 60.617 18.305C60.0436 19.337 59.757 20.5697 59.757 22.003C59.757 23.4363 60.0436 24.6977 60.617 25.787C61.219 26.8477 61.993 27.6647 62.939 28.238C63.9136 28.8113 64.9456 29.098 66.035 29.098C67.153 29.098 68.1993 28.8257 69.174 28.281C70.1486 27.7077 70.9226 26.905 71.496 25.873C72.0693 24.8123 72.356 23.551 72.356 22.089ZM98.4025 34L90.3185 23.852V34H84.2985V2.18H90.3185V20.283L98.3165 10.178H106.143L95.6505 22.132L106.229 34H98.4025ZM112.463 7.34C111.402 7.34 110.514 7.01033 109.797 6.351C109.109 5.663 108.765 4.81733 108.765 3.814C108.765 2.81066 109.109 1.97933 109.797 1.32C110.514 0.631998 111.402 0.287998 112.463 0.287998C113.524 0.287998 114.398 0.631998 115.086 1.32C115.803 1.97933 116.161 2.81066 116.161 3.814C116.161 4.81733 115.803 5.663 115.086 6.351C114.398 7.01033 113.524 7.34 112.463 7.34ZM115.43 10.178V34H109.41V10.178H115.43ZM127.398 13.618C128.172 12.5287 129.232 11.6257 130.58 10.909C131.956 10.1637 133.518 9.791 135.267 9.791C137.302 9.791 139.137 10.2927 140.771 11.296C142.433 12.2993 143.738 13.7327 144.684 15.596C145.658 17.4307 146.146 19.5663 146.146 22.003C146.146 24.4397 145.658 26.604 144.684 28.496C143.738 30.3593 142.433 31.807 140.771 32.839C139.137 33.871 137.302 34.387 135.267 34.387C133.518 34.387 131.97 34.0287 130.623 33.312C129.304 32.5953 128.229 31.6923 127.398 30.603V45.352H121.378V10.178H127.398V13.618ZM139.997 22.003C139.997 20.5697 139.696 19.337 139.094 18.305C138.52 17.2443 137.746 16.4417 136.772 15.897C135.826 15.3523 134.794 15.08 133.676 15.08C132.586 15.08 131.554 15.3667 130.58 15.94C129.634 16.4847 128.86 17.2873 128.258 18.348C127.684 19.4087 127.398 20.6557 127.398 22.089C127.398 23.5223 127.684 24.7693 128.258 25.83C128.86 26.8907 129.634 27.7077 130.58 28.281C131.554 28.8257 132.586 29.098 133.676 29.098C134.794 29.098 135.826 28.8113 136.772 28.238C137.746 27.6647 138.52 26.8477 139.094 25.787C139.696 24.7263 139.997 23.465 139.997 22.003Z" fill="white"/>
</svg>
