<svg width="40" height="40" viewBox="0 0 40 40" fill="none" xmlns="http://www.w3.org/2000/svg">
<path d="M35 2.5C35.663 2.5 36.2989 2.76339 36.7678 3.23223C37.2366 3.70107 37.5 4.33696 37.5 5V35C37.5 35.663 37.2366 36.2989 36.7678 36.7678C36.2989 37.2366 35.663 37.5 35 37.5H5C4.33696 37.5 3.70107 37.2366 3.23223 36.7678C2.76339 36.2989 2.5 35.663 2.5 35V5C2.5 4.33696 2.76339 3.70107 3.23223 3.23223C3.70107 2.76339 4.33696 2.5 5 2.5H35ZM5 0C3.67392 0 2.40215 0.526784 1.46447 1.46447C0.526784 2.40215 0 3.67392 0 5L0 35C0 36.3261 0.526784 37.5979 1.46447 38.5355C2.40215 39.4732 3.67392 40 5 40H35C36.3261 40 37.5979 39.4732 38.5355 38.5355C39.4732 37.5979 40 36.3261 40 35V5C40 3.67392 39.4732 2.40215 38.5355 1.46447C37.5979 0.526784 36.3261 0 35 0L5 0Z" fill="white"/>
<path d="M13.1375 14.465C13.1341 14.5457 13.1472 14.6263 13.1761 14.7018C13.2049 14.7773 13.249 14.846 13.3054 14.9039C13.3618 14.9617 13.4295 15.0074 13.5042 15.0381C13.579 15.0688 13.6592 15.0839 13.74 15.0825H15.8025C16.1475 15.0825 16.4225 14.8 16.4675 14.4575C16.6925 12.8175 17.8175 11.6225 19.8225 11.6225C21.5375 11.6225 23.1075 12.48 23.1075 14.5425C23.1075 16.13 22.1725 16.86 20.695 17.97C19.0125 19.1925 17.68 20.62 17.775 22.9375L17.7825 23.48C17.7851 23.644 17.8521 23.8004 17.9691 23.9155C18.086 24.0305 18.2435 24.095 18.4075 24.095H20.435C20.6008 24.095 20.7597 24.0292 20.8769 23.9119C20.9941 23.7947 21.06 23.6358 21.06 23.47V23.2075C21.06 21.4125 21.7425 20.89 23.585 19.4925C25.1075 18.335 26.695 17.05 26.695 14.3525C26.695 10.575 23.505 8.75 20.0125 8.75C16.845 8.75 13.375 10.225 13.1375 14.465ZM17.03 28.8725C17.03 30.205 18.0925 31.19 19.555 31.19C21.0775 31.19 22.125 30.205 22.125 28.8725C22.125 27.4925 21.075 26.5225 19.5525 26.5225C18.0925 26.5225 17.03 27.4925 17.03 28.8725Z" fill="white"/>
</svg>
