<svg width="40" height="37" viewBox="0 0 40 37" fill="none" xmlns="http://www.w3.org/2000/svg">
<path d="M35 2.41942C35.663 2.41942 36.2989 2.67433 36.7678 3.12806C37.2366 3.58179 37.5 4.19718 37.5 4.83885V24.1942C37.5 24.8359 37.2366 25.4513 36.7678 25.905C36.2989 26.3588 35.663 26.6137 35 26.6137H11.035C9.70903 26.6139 8.43746 27.1239 7.5 28.0315L2.5 32.8703V4.83885C2.5 4.19718 2.76339 3.58179 3.23223 3.12806C3.70107 2.67433 4.33696 2.41942 5 2.41942H35ZM5 0C3.67392 0 2.40215 0.509806 1.46447 1.41727C0.526784 2.32473 0 3.55551 0 4.83885L0 35.7905C5.25372e-05 36.0299 0.0734815 36.2639 0.210993 36.4628C0.348505 36.6618 0.543917 36.8168 0.772498 36.9083C1.00108 36.9997 1.25255 37.0235 1.49509 36.9765C1.73763 36.9296 1.96033 36.8141 2.135 36.6446L9.2675 29.742C9.73623 29.2882 10.372 29.0332 11.035 29.0331H35C36.3261 29.0331 37.5979 28.5233 38.5355 27.6158C39.4732 26.7084 40 25.4776 40 24.1942V4.83885C40 3.55551 39.4732 2.32473 38.5355 1.41727C37.5979 0.509806 36.3261 0 35 0L5 0Z" fill="white"/>
<path d="M12.6 14.4198C12.6 15.0615 12.3366 15.6769 11.8677 16.1306C11.3989 16.5843 10.763 16.8392 10.1 16.8392C9.43693 16.8392 8.80105 16.5843 8.33221 16.1306C7.86337 15.6769 7.59998 15.0615 7.59998 14.4198C7.59998 13.7781 7.86337 13.1627 8.33221 12.709C8.80105 12.2553 9.43693 12.0004 10.1 12.0004C10.763 12.0004 11.3989 12.2553 11.8677 12.709C12.3366 13.1627 12.6 13.7781 12.6 14.4198ZM22.6 14.4198C22.6 15.0615 22.3366 15.6769 21.8677 16.1306C21.3989 16.5843 20.763 16.8392 20.1 16.8392C19.4369 16.8392 18.8011 16.5843 18.3322 16.1306C17.8634 15.6769 17.6 15.0615 17.6 14.4198C17.6 13.7781 17.8634 13.1627 18.3322 12.709C18.8011 12.2553 19.4369 12.0004 20.1 12.0004C20.763 12.0004 21.3989 12.2553 21.8677 12.709C22.3366 13.1627 22.6 13.7781 22.6 14.4198ZM32.6 14.4198C32.6 15.0615 32.3366 15.6769 31.8677 16.1306C31.3989 16.5843 30.763 16.8392 30.1 16.8392C29.4369 16.8392 28.8011 16.5843 28.3322 16.1306C27.8634 15.6769 27.6 15.0615 27.6 14.4198C27.6 13.7781 27.8634 13.1627 28.3322 12.709C28.8011 12.2553 29.4369 12.0004 30.1 12.0004C30.763 12.0004 31.3989 12.2553 31.8677 12.709C32.3366 13.1627 32.6 13.7781 32.6 14.4198Z" fill="white"/>
</svg>
