<svg width="40" height="37" viewBox="0 0 40 37" fill="none" xmlns="http://www.w3.org/2000/svg">
<path d="M28.7141 2.64286L37.4499 18.5L28.7141 34.3571H11.2833L2.54754 18.5L11.2833 2.64286H28.7141ZM11.2833 0C10.8341 0.000150257 10.393 0.123428 10.0045 0.357343C9.61607 0.591259 9.29414 0.9275 9.07135 1.332L0.335562 17.1891C0.115663 17.5884 0 18.0402 0 18.5C0 18.9598 0.115663 19.4116 0.335562 19.8109L9.07135 35.668C9.29414 36.0725 9.61607 36.4087 10.0045 36.6427C10.393 36.8766 10.8341 36.9998 11.2833 37H28.7141C29.1633 36.9998 29.6045 36.8766 29.9929 36.6427C30.3814 36.4087 30.7033 36.0725 30.9261 35.668L39.6644 19.8109C39.8843 19.4116 40 18.9598 40 18.5C40 18.0402 39.8843 17.5884 39.6644 17.1891L30.9261 1.332C30.7033 0.9275 30.3814 0.591259 29.9929 0.357343C29.6045 0.123428 29.1633 0.000150257 28.7141 0H11.2833Z" fill="white"/>
<path d="M16.8176 12.9678C16.0872 13.3985 15.4462 13.9747 14.9314 14.6634C14.4166 15.352 14.0382 16.1395 13.8181 16.9804C13.598 17.8213 13.5404 18.6991 13.6487 19.5631C13.757 20.4272 14.029 21.2606 14.4491 22.0152C14.8692 22.7698 15.4291 23.4307 16.0965 23.96C16.764 24.4893 17.5257 24.8765 18.338 25.0992C19.1503 25.3219 19.9971 25.3758 20.8295 25.2577C21.662 25.1397 22.4637 24.8521 23.1885 24.4114C24.6398 23.529 25.6957 22.0871 26.1257 20.4003C26.5557 18.7135 26.325 16.9188 25.4838 15.4079C24.6426 13.8969 23.2593 12.7923 21.6357 12.3352C20.0121 11.8781 18.2801 12.1055 16.8176 12.9678ZM12.2815 23.3146C11.6719 22.2618 11.2706 21.0937 11.101 19.8783C10.9313 18.663 10.9967 17.4248 11.2932 16.2359C11.5898 15.047 12.1117 13.9313 12.8285 12.9538C13.5452 11.9763 14.4425 11.1566 15.4679 10.5425C16.4933 9.92841 17.6264 9.53221 18.801 9.37702C19.9756 9.22183 21.1683 9.31075 22.3094 9.6386C23.4505 9.96644 24.5173 10.5267 25.4475 11.2866C26.3776 12.0465 27.1526 12.9908 27.7271 14.0646C28.8912 16.188 29.1982 18.7028 28.5811 21.06C27.964 23.4173 26.4729 25.4258 24.4332 26.6471C22.3935 27.8685 19.9707 28.2035 17.6937 27.5792C15.4166 26.9549 13.4701 25.4218 12.279 23.3146H12.2815Z" fill="white"/>
</svg>
